HIERARCHY
ROOT Hips
{
	OFFSET 56.277401 -33.368816 94.296196
	CHANNELS 6 Xposition Yposition Zposition Xrotation Yrotation Zrotation
	JOINT spine
	{
		OFFSET 0.000000 -0.448574 7.800591
		CHANNELS 3 Xrotation Yrotation Zrotation
		JOINT spine1
		{
			OFFSET 0.000000 -0.000004 10.136398
			CHANNELS 3 Xrotation Yrotation Zrotation
			JOINT spine2
			{
				OFFSET 0.000000 0.000000 9.712509
				CHANNELS 3 Xrotation Yrotation Zrotation
				JOINT Neck
				{
					OFFSET 0.000000 -1.188873 24.936111
					CHANNELS 3 Xrotation Yrotation Zrotation
					JOINT Head
					{
						OFFSET 0.000000 -0.000004 7.533844
						CHANNELS 3 Xrotation Yrotation Zrotation
						End Site
						{
							OFFSET 0.000000 6.014017 18.236099
						}
					}
				}
				JOINT RightShoulder
				{
					OFFSET -4.089649 0.569454 10.488815
					CHANNELS 3 Xrotation Yrotation Zrotation
					JOINT RightArm
					{
						OFFSET 0.000000 0.000000 13.757004
						CHANNELS 3 Xrotation Yrotation Zrotation
						JOINT RightArmRoll
						{
							OFFSET 0.000000 -0.000004 6.944778
							CHANNELS 3 Xrotation Yrotation Zrotation
							JOINT RightForeArm
							{
								OFFSET 0.000000 0.000000 20.227692
								CHANNELS 3 Xrotation Yrotation Zrotation
								JOINT RightForeArmRoll
								{
									OFFSET 0.000000 -0.000004 7.793121
									CHANNELS 3 Xrotation Yrotation Zrotation
									JOINT RightHand
									{
										OFFSET 0.000000 0.000000 15.639099
										CHANNELS 3 Xrotation Yrotation Zrotation
										End Site
										{
											OFFSET 0.000000 0.000000 0.100006
										}
									}
								}
							}
						}
					}
				}
				JOINT LeftShoulder
				{
					OFFSET 4.089649 0.569454 10.488815
					CHANNELS 3 Xrotation Yrotation Zrotation
					JOINT LeftArm
					{
						OFFSET 0.000000 0.000000 13.757004
						CHANNELS 3 Xrotation Yrotation Zrotation
						JOINT LeftArmRoll
						{
							OFFSET 0.000000 -0.000004 6.944778
							CHANNELS 3 Xrotation Yrotation Zrotation
							JOINT LeftForeArm
							{
								OFFSET 0.000000 0.000000 20.227692
								CHANNELS 3 Xrotation Yrotation Zrotation
								JOINT LeftForeArmRoll
								{
									OFFSET 0.000000 -0.000004 7.793121
									CHANNELS 3 Xrotation Yrotation Zrotation
									JOINT LeftHand
									{
										OFFSET 0.000000 0.000000 15.639099
										CHANNELS 3 Xrotation Yrotation Zrotation
										End Site
										{
											OFFSET 0.000000 0.000000 0.100006
										}
									}
								}
							}
						}
					}
				}
			}
		}
	}
	JOINT RightUpLeg
	{
		OFFSET -6.914158 1.063580 -1.267883
		CHANNELS 3 Xrotation Yrotation Zrotation
		JOINT RightUpLegRoll
		{
			OFFSET 0.000000 -0.000004 18.337799
			CHANNELS 3 Xrotation Yrotation Zrotation
			JOINT RightLeg
			{
				OFFSET 0.000000 0.000004 -22.708496
				CHANNELS 3 Xrotation Yrotation Zrotation
				JOINT RightLegRoll
				{
					OFFSET 0.000000 -0.000004 22.782799
					CHANNELS 3 Xrotation Yrotation Zrotation
					JOINT RightFoot
					{
						OFFSET 0.000000 -0.000004 18.962906
						CHANNELS 3 Xrotation Yrotation Zrotation
						JOINT RightToeBase
						{
							OFFSET 0.000000 0.000000 15.852005
							CHANNELS 3 Xrotation Yrotation Zrotation
							End Site
							{
								OFFSET 0.006718 0.884892 7.677002
							}
						}
					}
				}
			}
		}
	}
	JOINT LeftUpLeg
	{
		OFFSET 6.914158 1.063580 -1.267883
		CHANNELS 3 Xrotation Yrotation Zrotation
		JOINT LeftUpLegRoll
		{
			OFFSET 0.000000 -0.000004 18.337898
			CHANNELS 3 Xrotation Yrotation Zrotation
			JOINT LeftLeg
			{
				OFFSET 0.000000 -0.000004 22.708405
				CHANNELS 3 Xrotation Yrotation Zrotation
				JOINT LeftLegRoll
				{
					OFFSET 0.000000 -0.000004 22.993408
					CHANNELS 3 Xrotation Yrotation Zrotation
					JOINT LeftFoot
					{
						OFFSET 0.000000 -0.000004 18.752197
						CHANNELS 3 Xrotation Yrotation Zrotation
						JOINT LeftToeBase
						{
							OFFSET 0.000000 0.000000 15.852005
							CHANNELS 3 Xrotation Yrotation Zrotation
							End Site
							{
								OFFSET -0.030113 0.884890 7.677017
							}
						}
					}
				}
			}
		}
	}
}
MOTION
Frames: 9
Frame Time: 0.041667
50.414505 -1.099522 51.039074 -9.610448 -0.821136 6.202237 -1.337040 -0.546637 -1.349619 1.316743 -1.054621 -2.703170 2.961184 -1.086996 -2.690305 40.934857 37.751121 -7.742103 -28.386041 -20.262294 -2.732153 6.897902 -65.402449 6.979763 -44.581639 -135.353312 -61.757054 -0.000002 0.000004 -0.000003 28.346904 -22.697079 5.385955 -0.000007 -0.000014 -2.999997 -5.000309 -7.999598 0.000185 79.356362 85.034776 -77.433021 29.239664 79.269188 -15.633197 -0.000000 0.000001 0.000001 67.574046 9.583175 -0.575153 -0.000007 -0.000001 3.000000 -5.000180 7.998891 -0.000138 -82.910471 -177.254583 4.010397 -179.999991 -0.000005 -1.388996 77.055824 3.937441 2.527146 0.000001 -0.000003 1.928590 74.851053 6.616277 2.471062 25.456959 -7.355616 -0.000001 -82.780991 167.287739 -10.149792 -0.000021 -0.000004 -1.878231 -103.363957 -4.133564 -2.775468 0.000004 -0.000001 -2.979660 75.709676 -8.778330 4.296449 26.681101 7.354021 -0.157248 
50.418205 -1.097103 51.041595 -9.611230 -0.822867 6.202441 -1.324408 -0.546364 -1.349621 1.341977 -1.055780 -2.703478 2.986420 -1.088160 -2.690505 40.705523 37.792987 -7.682806 -28.256016 -20.313594 -2.727948 6.863906 -65.337487 6.951608 -44.539486 -135.382081 -61.765571 -0.000000 0.000004 0.000000 28.469873 -22.673411 5.401511 -0.000009 -0.000019 -3.000002 -5.000314 -7.999601 0.000186 78.854213 85.064706 -76.923749 29.539909 79.273880 -15.893051 -0.000000 0.000001 -0.000002 67.595609 9.570388 -0.568483 -0.000007 -0.000000 3.000000 -5.000182 7.998892 -0.000139 -82.908572 -177.257261 4.007680 -179.999991 -0.000005 -1.388996 77.052348 3.939818 2.528637 -0.000000 -0.000003 1.928590 74.854475 6.615350 2.475937 25.456957 -7.355615 -0.000000 -82.779734 167.289132 -10.150543 -0.000021 -0.000001 -1.878288 -103.361321 -4.133270 -2.775337 0.000004 -0.000003 -2.979659 75.705626 -8.779044 4.296842 26.682416 7.354014 -0.157195 
50.418709 -1.092331 51.040989 -9.611608 -0.824636 6.202727 -1.312018 -0.545999 -1.349626 1.366773 -1.056789 -2.703818 3.011214 -1.089154 -2.690730 40.478020 37.834016 -7.623194 -28.126531 -20.364025 -2.723022 6.830256 -65.274916 6.923426 -44.500042 -135.409019 -61.777804 -0.000005 0.000003 -0.000002 28.591467 -22.651095 5.417246 -0.000007 -0.000016 -3.000001 -5.000311 -7.999600 0.000188 78.346586 85.094014 -76.409067 29.841445 79.277835 -16.154371 -0.000001 -0.000000 -0.000000 67.616018 9.557979 -0.562026 -0.000007 0.000002 3.000002 -5.000180 7.998893 -0.000138 -82.907158 -177.259842 4.004959 -179.999991 -0.000005 -1.388996 77.048782 3.942227 2.530035 -0.000001 -0.000003 1.928590 74.857808 6.614436 2.480919 25.456959 -7.355614 -0.000000 -82.778846 167.290676 -10.151661 -0.000020 -0.000002 -1.878371 -103.358206 -4.132828 -2.774185 0.000004 -0.000001 -2.979658 75.701350 -8.779964 4.297595 26.683626 7.354021 -0.157132 
50.428101 -1.132641 51.027401 -9.611697 -0.826436 6.203071 -1.299777 -0.545570 -1.349639 1.391258 -1.057678 -2.704184 3.035691 -1.090048 -2.690966 40.251599 37.874434 -7.563185 -27.997536 -20.413970 -2.717644 6.796903 -65.214148 6.895296 -44.461226 -135.436272 -61.790700 -0.000004 0.000002 -0.000001 28.711957 -22.629812 5.433052 -0.000006 -0.000017 -2.999999 -5.000311 -7.999599 0.000186 77.835470 85.122797 -75.891004 30.143950 79.281175 -16.416865 -0.000002 0.000000 -0.000000 67.635491 9.545983 -0.556002 -0.000006 0.000001 3.000001 -5.000182 7.998892 -0.000133 -82.906025 -177.262233 4.001637 -179.999991 -0.000005 -1.387999 77.045203 3.944611 2.531431 -0.000000 -0.000003 1.928590 74.861134 6.613522 2.486101 25.456959 -7.355615 -0.000000 -82.778170 167.292561 -10.153504 -0.000020 -0.000003 -1.878459 -103.355065 -4.132135 -2.772981 0.000004 -0.000002 -2.979659 75.697019 -8.780983 4.298831 26.684842 7.354026 -0.157057 
50.428505 -1.122551 51.029278 -9.611632 -0.828250 6.203454 -1.287626 -0.545104 -1.349653 1.415560 -1.058507 -2.704544 3.059993 -1.090872 -2.691218 40.025940 37.914609 -7.502961 -27.868633 -20.463561 -2.711791 6.763772 -65.154267 6.867243 -44.423943 -135.462186 -61.805794 0.000001 0.000005 0.000001 28.831881 -22.609094 5.448908 -0.000008 -0.000016 -3.000001 -5.000312 -7.999600 0.000184 77.318663 85.151094 -75.367299 30.447016 79.284071 -16.680025 -0.000001 0.000000 0.000001 67.654588 9.534107 -0.550120 -0.000004 0.000001 3.000002 -5.000181 7.998895 -0.000135 -82.905164 -177.264733 3.999101 -179.999991 -0.000005 -1.387999 77.041440 3.947029 2.532938 -0.000000 -0.000003 1.928590 74.864549 6.612544 2.491270 25.456960 -7.355615 -0.000000 -82.777774 167.294391 -10.154932 -0.000020 -0.000002 -1.878568 -103.351670 -4.131609 -2.771797 0.000002 -0.000001 -2.979659 75.692594 -8.782063 4.300148 26.686053 7.354029 -0.156970 
50.421402 -1.094734 51.040394 -9.611517 -0.830069 6.203839 -1.275497 -0.544628 -1.349667 1.439816 -1.059315 -2.704916 3.084250 -1.091676 -2.691471 39.800089 37.954811 -7.442395 -27.739657 -20.513116 -2.705640 6.730828 -65.094688 6.839348 -44.386729 -135.488113 -61.820937 -0.000003 0.000004 -0.000000 28.951632 -22.588583 5.464720 -0.000008 -0.000016 -3.000000 -5.000310 -7.999594 0.000185 76.794645 85.178948 -74.836402 30.750359 79.286639 -16.943481 -0.000002 -0.000001 -0.000002 67.673385 9.522353 -0.544286 -0.000006 0.000002 3.000001 -5.000179 7.998892 -0.000138 -82.904317 -177.267246 3.996762 -179.999991 -0.000005 -1.387999 77.037765 3.949445 2.534342 0.000000 -0.000003 1.928590 74.867889 6.611655 2.496255 25.456959 -7.355616 0.000000 -82.777371 167.296249 -10.156461 -0.000020 0.000000 -1.878680 -103.348330 -4.130851 -2.770590 0.000003 -0.000001 -2.979660 75.688086 -8.783187 4.301453 26.687265 7.354023 -0.156884 
50.425205 -1.102257 51.037682 -9.611493 -0.831881 6.204211 -1.263315 -0.544172 -1.349671 1.464161 -1.060164 -2.705274 3.108595 -1.092520 -2.691711 39.573703 37.995188 -7.381468 -27.610592 -20.563010 -2.699413 6.698006 -65.034684 6.811660 -44.348739 -135.514723 -61.834966 -0.000000 0.000004 -0.000001 29.071631 -22.567812 5.480416 -0.000007 -0.000013 -3.000000 -5.000311 -7.999598 0.000186 76.265667 85.206460 -74.300567 31.053879 79.289146 -17.207067 -0.000000 -0.000001 -0.000000 67.692577 9.510448 -0.538309 -0.000006 -0.000002 2.999999 -5.000178 7.998893 -0.000134 -82.903368 -177.269719 3.994134 -179.999991 -0.000005 -1.387999 77.034090 3.951838 2.535841 0.000001 -0.000003 1.928590 74.871215 6.610739 2.501439 25.456962 -7.355614 -0.000000 -82.776968 167.298080 -10.157684 -0.000020 -0.000001 -1.878791 -103.344929 -4.130324 -2.769391 0.000002 -0.000002 -2.979657 75.683666 -8.784251 4.302774 26.688476 7.354026 -0.156810 
50.424202 -1.095577 51.038689 -9.611665 -0.833671 6.204536 -1.251035 -0.543761 -1.349685 1.488725 -1.061081 -2.705625 3.133160 -1.093443 -2.691951 39.346128 38.036299 -7.320325 -27.481121 -20.613376 -2.693136 6.665227 -64.973281 6.784207 -44.310449 -135.541184 -61.848688 -0.000001 0.000004 -0.000000 29.192345 -22.546359 5.495897 -0.000006 -0.000015 -2.999999 -5.000311 -7.999600 0.000185 75.728916 85.233657 -73.756932 31.357108 79.291632 -17.470309 -0.000000 0.000001 0.000001 67.712337 9.498327 -0.532118 -0.000006 0.000003 3.000002 -5.000177 7.998892 -0.000135 -82.902193 -177.272246 3.991301 -179.999991 -0.000005 -1.387999 77.030416 3.954253 2.537244 0.000000 -0.000003 1.928590 74.874637 6.609790 2.506512 25.456959 -7.355615 -0.000000 -82.776190 167.299787 -10.159365 -0.000020 -0.000003 -1.878879 -103.341889 -4.129657 -2.768206 0.000003 -0.000001 -2.979662 75.679316 -8.785244 4.303807 26.689690 7.354019 -0.156728 
50.425400 -1.095985 51.038570 -9.612162 -0.835430 6.204800 -1.238565 -0.543424 -1.349699 1.513660 -1.062139 -2.705956 3.158086 -1.094495 -2.692165 39.116862 38.078229 -7.258898 -27.351209 -20.664592 -2.687041 6.632514 -64.909972 6.757128 -44.270267 -135.568832 -61.859924 -0.000000 0.000004 -0.000001 29.314127 -22.523853 5.511082 -0.000009 -0.000014 -2.999999 -5.000309 -7.999599 0.000187 75.184366 85.260589 -73.205469 31.659966 79.294344 -17.732954 -0.000001 0.000000 -0.000002 67.733039 9.485879 -0.525573 -0.000007 0.000003 2.999999 -5.000182 7.998893 -0.000134 -82.900588 -177.274732 3.988092 -179.999991 -0.000005 -1.387999 77.026939 3.956614 2.538735 -0.000001 -0.000003 1.928590 74.877971 6.608873 2.511591 25.456959 -7.355616 -0.000000 -82.775308 167.301331 -10.160063 -0.000020 -0.000003 -1.878950 -103.338863 -4.129243 -2.768045 0.000004 -0.000000 -2.979661 75.675122 -8.786109 4.304571 26.691003 7.354025 -0.156682 
